#!OML:ASF E:\Steps\Project 1\Capture day 1\Session 2\Subject.ASF
:FULLY-SPECIFIED
:DEGREES
382
root 11.9091 17.1377 17.1739 -153.36 -0.124996 178.362
lowerback -27.8628 -2.06401 -6.66582
upperback 0.594935 -0.898327 0.172569
thorax 15.6491 -1.06565 3.45484
lowerneck -1.72561 -2.85797 -0.883169
upperneck 21.9343 -2.96448 4.56169
head 7.0514 -0.440149 1.52087
rclavicle -3.77691e-015 -5.96354e-016
rhumerus -41.177 -16.4854 -75.1336
rradius 37.4494
rwrist -3.23718
rhand -7.06422 -51.4227
rfingers 7.12502
rthumb 18.8091 -80.5334
lclavicle -3.77691e-015 -5.96354e-016
lhumerus -30.8571 5.22798 79.7607
lradius 25.5311
lwrist -0.967346
lhand -21.222 -11.5272
lfingers 7.12502
lthumb 5.16002 18.3899
rfemur -23.9914 6.25937 17.9987
rtibia 6.58079
rfoot -17.569 -4.44613
rtoes -22.7032
lfemur -24.0169 -7.46881 -22.577
ltibia 6.43269
lfoot -5.45427 -5.69971
ltoes -26.7605
383
root 11.9143 17.1361 17.1735 -153.371 -0.232007 178.39
lowerback -27.9596 -2.10486 -6.63411
upperback 0.631627 -0.961118 0.244805
thorax 15.7486 -1.09592 3.49103
lowerneck -1.78383 -2.96593 -1.07188
upperneck 21.8128 -3.1485 4.69127
head 7.03263 -0.544978 1.58004
rclavicle -5.2181e-015 -9.54166e-015
rhumerus -41.1229 -16.5998 -75.0037
rradius 37.3086
rwrist -2.90479
rhand -6.77721 -51.6094
rfingers 7.12502
rthumb 19.0851 -80.693
lclavicle -5.2181e-015 -9.54166e-015
lhumerus -30.7707 5.32272 79.8476
lradius 25.633
lwrist -1.01659
lhand -21.5894 -11.2128
lfingers 7.12502
lthumb 4.80522 18.7127
rfemur -24.0047 6.23016 18.0701
rtibia 6.65565
rfoot -17.6367 -4.49494
rtoes -22.9173
lfemur -24.0199 -7.78574 -22.4216
ltibia 6.42282
lfoot -5.50264 -5.44466
ltoes -27.3999
384
root 11.9193 17.1363 17.1724 -153.421 -0.351527 178.404
lowerback -27.9149 -2.16972 -6.61849
upperback 0.652298 -1.06494 0.351511
thorax 15.7669 -1.14347 3.56043
lowerneck -2.02257 -2.87581 -1.23648
upperneck 21.944 -3.01037 4.63562
head 7.11498 -0.493928 1.59832
rclavicle -1.83876e-015 1.2921e-014
rhumerus -40.995 -16.6042 -74.8299
rradius 37.0897
rwrist -2.60651
rhand -6.61478 -51.7051
rfingers 7.12502
rthumb 19.2413 -80.7732
lclavicle -1.83876e-015 1.2921e-014
lhumerus -30.7621 5.4953 79.9801
lradius 25.7628
lwrist -0.968402
lhand -22.0556 -11.0331
lfingers 7.12502
lthumb 4.3551 18.9021
rfemur -23.9655 6.63632 18.0434
rtibia 6.73966
rfoot -17.7034 -5.00505
rtoes -23.2262
lfemur -24.0161 -8.09091 -22.2903
ltibia 6.50313
lfoot -5.5584 -5.20009
ltoes -27.5515
385
root 11.9243 17.1364 17.171 -153.435 -0.42438 178.413
lowerback -27.9755 -2.22293 -6.60011
upperback 0.678416 -1.14317 0.418478
thorax 15.8384 -1.18065 3.59232
lowerneck -2.02331 -2.80495 -1.39557
upperneck 21.8465 -2.9297 4.73796
head 7.0843 -0.467195 1.6624
rclavicle -9.79014e-015 -2.70347e-014
rhumerus -40.8783 -16.5592 -74.7634
rradius 36.9409
rwrist -2.50026
rhand -6.84113 -51.8501
rfingers 7.12502
rthumb 19.0236 -80.9398
lclavicle -9.79014e-015 -2.70347e-014
lhumerus -30.7598 5.58378 80.0667
lradius 25.9085
lwrist -0.88115
lhand -22.086 -11.062
lfingers 7.12502
lthumb 4.32568 18.8738
rfemur -23.8913 6.8099 18.0496
rtibia 6.65139
rfoot -17.6429 -5.25854
rtoes -23.3784
lfemur -24.0595 -8.11952 -22.2393
ltibia 6.60882
lfoot -5.56887 -5.20497
ltoes -27.1151
386
root 11.929 17.1361 17.1684 -153.443 -0.450635 178.413
lowerback -28.085 -2.24748 -6.56747
upperback 0.707867 -1.17684 0.4217
thorax 15.9301 -1.19578 3.56255
lowerneck -1.98408 -2.7019 -1.3963
upperneck 21.6983 -2.81576 4.8373
head 7.02625 -0.41304 1.70052
rclavicle -7.40473e-015 -5.1684e-015
rhumerus -40.759 -16.5353 -74.7988
rradius 36.8106
rwrist -2.60011
rhand -7.09603 -51.6594
rfingers 7.12502
rthumb 18.7785 -80.773
lclavicle -7.40473e-015 -5.1684e-015
lhumerus -30.7138 5.54948 80.0973
lradius 26.038
lwrist -0.787387
lhand -22.003 -10.9275
lfingers 7.12502
lthumb 4.40585 19.0067
rfemur -23.807 6.52275 18.143
rtibia 6.51237
rfoot -17.5471 -5.00632
rtoes -23.2925
lfemur -24.0549 -8.09831 -22.2282
ltibia 6.65287
lfoot -5.6331 -5.20805
ltoes -27.1258
387
root 11.9345 17.1372 17.1673 -153.453 -0.456911 178.358
lowerback -28.1372 -2.24666 -6.59539
upperback 0.717777 -1.15629 0.376746
thorax 15.9633 -1.18859 3.53519
lowerneck -1.9762 -2.6401 -1.1622
upperneck 21.615 -2.73068 4.69926
head 6.98973 -0.369539 1.62032
rclavicle -6.01324e-015 -7.55382e-015
rhumerus -40.6622 -16.7194 -74.7511
rradius 36.5637
rwrist -2.58431
rhand -7.07572 -51.2421
rfingers 7.12502
rthumb 18.798 -80.3538
lclavicle -6.01324e-015 -7.55382e-015
lhumerus -30.6628 5.538 80.0941
lradius 26.153
lwrist -0.751934
lhand -21.9239 -10.92
lfingers 7.12502
lthumb 4.48229 19.0126
rfemur -23.8094 6.43307 18.1332
rtibia 6.53188
rfoot -17.575 -4.90605
rtoes -23.0164
lfemur -24.0397 -8.10709 -22.2773
ltibia 6.67469
lfoot -5.66679 -5.19739
ltoes -27.5645
388
root 11.9399 17.137 17.1669 -153.468 -0.456347 178.289
lowerback -28.2219 -2.21119 -6.63421
upperback 0.763567 -1.07582 0.308563
thorax 16.0478 -1.15612 3.51194
lowerneck -2.02104 -2.63461 -0.902074
upperneck 21.5736 -2.71906 4.52113
head 6.97796 -0.360723 1.51811
rclavicle -6.75868e-015 -1.23246e-014
rhumerus -40.6015 -16.9041 -74.7387
rradius 36.4464
rwrist -2.61628
rhand -7.16132 -51.2714
rfingers 7.12502
rthumb 18.7157 -80.3911
lclavicle -6.75868e-015 -1.23246e-014
lhumerus -30.5647 5.41593 80.118
lradius 26.3394
lwrist -0.718185
lhand -21.7137 -11.1877
lfingers 7.12502
lthumb 4.68525 18.7405
rfemur -23.825 6.61588 18.0282
rtibia 6.61045
rfoot -17.6686 -5.06437
rtoes -22.6992
lfemur -24.0128 -8.11713 -22.3457
ltibia 6.62821
lfoot -5.61616 -5.1879
ltoes -27.3716
389
root 11.9436 17.1358 17.1663 -153.484 -0.46355 178.257
lowerback -28.2938 -2.17554 -6.63468
upperback 0.805909 -1.01545 0.289005
thorax 16.1258 -1.13087 3.51396
lowerneck -2.13437 -2.6836 -0.855672
upperneck 21.5555 -2.79234 4.45063
head 6.99271 -0.401985 1.48105
rclavicle 3.27995e-015 3.97569e-015
rhumerus -40.6209 -16.9689 -74.6881
rradius 36.5273
rwrist -2.77322
rhand -7.40293 -51.5738
rfingers 7.12502
rthumb 18.4833 -80.7157
lclavicle 3.27995e-015 3.97569e-015
lhumerus -30.5349 5.10202 80.2545
lradius 26.6027
lwrist -0.672903
lhand -21.7246 -11.1923
lfingers 7.12502
lthumb 4.6747 18.7361
rfemur -23.8083 6.72378 17.981
rtibia 6.6508
rfoot -17.7227 -5.19557
rtoes -22.6833
lfemur -23.9869 -8.12228 -22.3894
ltibia 6.63094
lfoot -5.67197 -5.16358
ltoes -27.4858
390
root 11.9486 17.1354 17.1698 -153.413 -0.497793 178.2
lowerback -28.3394 -2.17631 -6.69998
upperback 0.764308 -0.999441 0.295049
thorax 16.0966 -1.12994 3.56117
lowerneck -2.1053 -2.80321 -0.860278
upperneck 21.4337 -2.96582 4.41624
head 6.95274 -0.497458 1.45744
rclavicle -6.60959e-015 1.39149e-015
rhumerus -40.6986 -17.217 -74.4953
rradius 36.5036
rwrist -2.72552
rhand -7.51039 -51.5874
rfingers 7.12502
rthumb 18.3799 -80.7391
lclavicle -6.60959e-015 1.39149e-015
lhumerus -30.5528 4.80441 80.3849
lradius 26.7913
lwrist -0.500261
lhand -21.8018 -11.2088
lfingers 7.12502
lthumb 4.60019 18.7212
rfemur -23.8968 6.74967 17.9434
rtibia 6.65376
rfoot -17.6725 -5.31598
rtoes -23.1405
lfemur -24.1367 -8.04377 -22.4594
ltibia 6.78721
lfoot -5.7902 -5.27319
ltoes -28.3584
391
root 11.9524 17.1334 17.1652 -153.422 -0.375124 178.217
lowerback -28.4601 -2.10466 -6.69748
upperback 0.762665 -0.897782 0.281132
thorax 16.1407 -1.08729 3.58305
lowerneck -1.83503 -2.88739 -0.9639
upperneck 21.1029 -3.11828 4.60689
head 6.80675 -0.580755 1.52491
rclavicle 1.88845e-015 -9.74045e-015
rhumerus -40.7279 -17.4247 -74.358
rradius 36.3844
rwrist -2.6841
rhand -7.57587 -51.2974
rfingers 7.12502
rthumb 18.3169 -80.455
lclavicle 1.88845e-015 -9.74045e-015
lhumerus -30.5301 4.63475 80.4702
lradius 26.8927
lwrist -0.309167
lhand -21.7917 -11.2854
lfingers 7.12502
lthumb 4.6099 18.6445
rfemur -23.8815 6.64701 17.9877
rtibia 6.61775
rfoot -17.6157 -5.10453
rtoes -23.491
lfemur -24.0834 -8.01922 -22.4513
ltibia 6.74511
lfoot -5.81479 -5.13578
ltoes -28.7112
392
root 11.9614 17.131 17.1687 -153.339 -0.379565 178.197
lowerback -28.5832 -2.10014 -6.77482
upperback 0.763071 -0.85849 0.274518
thorax 16.1958 -1.07909 3.63134
lowerneck -1.68938 -2.85974 -1.04378
upperneck 20.773 -3.13034 4.82339
head 6.6793 -0.594527 1.6046
rclavicle -3.67752e-015 -1.86858e-014
rhumerus -40.7065 -17.5155 -74.3271
rradius 36.3509
rwrist -2.6806
rhand -7.69148 -51.345
rfingers 7.12502
rthumb 18.2057 -80.513
lclavicle -3.67752e-015 -1.86858e-014
lhumerus -30.456 4.3977 80.5832
lradius 26.9864
lwrist -0.273081
lhand -21.9816 -11.4098
lfingers 7.12502
lthumb 4.42656 18.524
rfemur -24.0012 6.7436 17.9751
rtibia 6.65446
rfoot -17.6477 -5.17852
rtoes -23.3863
lfemur -24.2298 -7.78978 -22.4778
ltibia 6.82144
lfoot -5.72293 -5.42062
ltoes -28.0832
393
root 11.9639 17.1311 17.1612 -153.454 -0.359404 178.204
lowerback -28.7665 -2.02936 -6.67859
upperback 0.928033 -0.749566 0.186695
thorax 16.4673 -1.02633 3.52505
lowerneck -1.76054 -2.75823 -0.852366
upperneck 20.5189 -3.03337 4.81719
head 6.60372 -0.551465 1.57214
rclavicle -4.91992e-015 -2.127e-014
rhumerus -40.6108 -17.7976 -74.3687
rradius 36.3768
rwrist -2.50178
rhand -7.7669 -51.5886
rfingers 7.12502
rthumb 18.1331 -80.7633
lclavicle -4.91992e-015 -2.127e-014
lhumerus -30.2261 4.16343 80.5907
lradius 27.107
lwrist -0.167481
lhand -21.9799 -11.3907
lfingers 7.12502
lthumb 4.42822 18.543
rfemur -23.8169 6.82268 17.9789
rtibia 6.59399
rfoot -17.6746 -5.25302
rtoes -23.2996
lfemur -24.0306 -7.88355 -22.4538
ltibia 6.72827
lfoot -5.6969 -5.38056
ltoes -27.4688
